<?xml version="1.0" encoding="utf-8"?>
<!-- Generator: Adobe Illustrator 24.0.1, SVG Export Plug-In . SVG Version: 6.00 Build 0)  -->
<svg version="1.1" id="Слой_1" xmlns="http://www.w3.org/2000/svg" xmlns:xlink="http://www.w3.org/1999/xlink" x="0px" y="0px"
	 viewBox="0 0 26 26" style="enable-background:new 0 0 26 26;" xml:space="preserve">
<style type="text/css">
	.st0{fill:#111111;}
</style>
<path class="st0" d="M23.7,24.9L22.2,7.3c0-0.5-0.4-0.8-0.9-0.8H18V5c0-2.7-2.2-5-5-5c-2.7,0-5,2.2-5,5v1.5H4.8
	c-0.5,0-0.9,0.4-0.9,0.8L2.2,25c0,0.3,0.1,0.5,0.2,0.7C2.7,25.9,2.9,26,3.2,26h19.7c0,0,0,0,0,0c0.5,0,0.9-0.4,0.9-0.9
	C23.8,25,23.8,25,23.7,24.9z M9.9,5c0-1.7,1.4-3.1,3.1-3.1c1.7,0,3.1,1.4,3.1,3.1v1.5H9.9V5z M4.2,24.1L5.6,8.3H8V10
	c0,0.5,0.4,0.9,0.9,0.9c0.5,0,0.9-0.4,0.9-0.9V8.3h6.2V10c0,0.5,0.4,0.9,0.9,0.9c0.5,0,0.9-0.4,0.9-0.9V8.3h2.4l1.4,15.8H4.2z"/>
</svg>
